<svg fill="none" height="48" viewBox="0 0 48 48" width="48" xmlns="http://www.w3.org/2000/svg"><path d="m24 44c11.0457 0 20-8.9543 20-20s-8.9543-20-20-20-20 8.9543-20 20 8.9543 20 20 20z" fill="#a6cfff"/><g fill="#1575e5"><path d="m31 24c0 3.866-3.134 7-7 7s-7-3.134-7-7 3.134-7 7-7 7 3.134 7 7z"/><path d="m22.0039 10.9407c.0157-1.10385.7689-1.93404 1.8729-1.94035.0402-.00023.0813-.00035.1232-.00035s.083.00012.1232.00035c1.104.00631 1.8572.8365 1.8729 1.94035.0025.1727.0039.359.0039.5593s-.0014.3866-.0039.5593c-.0157 1.1039-.7689 1.934-1.8729 1.9404-.0402.0002-.0813.0003-.1232.0003s-.083-.0001-.1232-.0003c-1.104-.0064-1.8572-.8365-1.8729-1.9404-.0025-.1727-.0039-.359-.0039-.5593s.0014-.3866.0039-.5593z"/><path d="m22.0039 37.0593c.0157 1.1039.7689 1.934 1.8729 1.9404.0402.0002.0813.0003.1232.0003s.083-.0001.1232-.0003c1.104-.0064 1.8572-.8365 1.8729-1.9404.0025-.1727.0039-.359.0039-.5593s-.0014-.3866-.0039-.5593c-.0157-1.1039-.7689-1.934-1.8729-1.9404-.0402-.0002-.0813-.0003-.1232-.0003s-.083.0001-.1232.0003c-1.104.0064-1.8572.8365-1.8729 1.9404-.0025.1727-.0039.359-.0039.5593s.0014.3866.0039.5593z"/><path d="m10.9407 25.9961c-1.10385-.0157-1.93404-.7689-1.94035-1.8729-.00023-.0402-.00035-.0813-.00035-.1232s.00012-.083.00035-.1232c.00631-1.104.8365-1.8572 1.94035-1.8729.1727-.0025.359-.0039.5593-.0039s.3866.0014.5593.0039c1.1039.0157 1.934.7689 1.9404 1.8729.0002.0402.0003.0813.0003.1232s-.0001.083-.0003.1232c-.0064 1.104-.8365 1.8572-1.9404 1.8729-.1727.0025-.359.0039-.5593.0039s-.3866-.0014-.5593-.0039z"/><path d="m37.0593 25.9961c1.1039-.0157 1.934-.7689 1.9404-1.8729.0002-.0402.0003-.0813.0003-.1232s-.0001-.083-.0003-.1232c-.0064-1.104-.8365-1.8572-1.9404-1.8729-.1727-.0025-.359-.0039-.5593-.0039s-.3866.0014-.5593.0039c-1.1039.0157-1.934.7689-1.9404 1.8729-.0002.0402-.0003.0813-.0003.1232s.0001.083.0003.1232c.0064 1.104.8365 1.8572 1.9404 1.8729.1727.0025.359.0039.5593.0039s.3866-.0014.5593-.0039z"/><path d="m13.3542 16.1772c-.7694-.7916-.8239-1.9112-.0477-2.6963.0283-.0286.0572-.0578.0869-.0874.0296-.0297.0588-.0586.0874-.0869.785-.7761 1.9046-.7217 2.6963.0477.1239.1204.2566.2511.3983.3928.1416.1416.2723.2743.3927.3982.7694.7917.8238 1.9113.0477 2.6963-.0283.0287-.0572.0578-.0869.0874-.0296.0297-.0588.0586-.0874.0869-.785.7762-1.9047.7217-2.6963-.0477-.1239-.1203-.2566-.2511-.3983-.3927-.1416-.1417-.2723-.2744-.3927-.3983z"/><path d="m31.8228 34.6457c.7917.7694 1.9113.8238 2.6964.0477.0286-.0283.0577-.0572.0874-.0869.0296-.0296.0586-.0588.0869-.0874.7761-.7851.7217-1.9047-.0477-2.6963-.1204-.1239-.2511-.2566-.3928-.3983-.1416-.1416-.2743-.2724-.3982-.3927-.7917-.7694-1.9113-.8239-2.6964-.0477-.0286.0283-.0577.0572-.0874.0869-.0296.0296-.0586.0587-.0869.0874-.7761.785-.7216 1.9046.0477 2.6963.1204.1239.2512.2566.3928.3982.1416.1417.2744.2724.3982.3928z"/><path d="m16.1771 34.6457c-.7917.7694-1.9113.8238-2.6963.0477-.0286-.0283-.0578-.0572-.0874-.0869-.0297-.0296-.0586-.0588-.0869-.0874-.7762-.7851-.7217-1.9047.0477-2.6963.1204-.1239.2511-.2566.3927-.3983.1417-.1416.2744-.2724.3983-.3927.7916-.7694 1.9113-.8239 2.6963-.0477.0286.0283.0578.0572.0874.0869.0297.0296.0586.0587.0869.0874.7761.785.7217 1.9046-.0477 2.6963-.1204.1239-.2511.2566-.3927.3982-.1417.1417-.2744.2724-.3983.3928z"/><path d="m34.6458 16.1772c.7694-.7916.8238-1.9112.0477-2.6963-.0283-.0286-.0573-.0578-.0869-.0874-.0297-.0297-.0588-.0586-.0874-.0869-.7851-.7761-1.9047-.7217-2.6964.0477-.1238.1204-.2566.2511-.3982.3928-.1416.1416-.2724.2743-.3928.3982-.7693.7917-.8238 1.9113-.0477 2.6963.0283.0287.0573.0578.0869.0874.0297.0297.0588.0586.0874.0869.7851.7762 1.9047.7217 2.6964-.0477.1239-.1203.2566-.2511.3982-.3927.1417-.1417.2724-.2744.3928-.3983z"/></g></svg>